<svg class="BracketOutcome-image printHide BracketOutcome-image--default css-1lh2p1f" fill="none" height="60" viewBox="0 0 60 60" width="60" xmlns="http://www.w3.org/2000/svg"><path class="NoPickBasketball-path" clip-rule="evenodd" d="M40.1707 19.4008C38.7552 20.058 37.3948 20.8176 36.0922 21.6798C34.7897 22.542 33.5449 23.4673 32.3526 24.453C32.9277 25.1101 33.6053 25.6858 34.3852 26.1773C35.1652 26.6715 36.0213 27.0921 36.9536 27.4417C37.8885 27.7887 38.8839 28.0515 39.9396 28.225C40.9953 28.4011 42.0983 28.4879 43.2486 28.4879H43.9104C44.1467 28.4879 44.3778 28.4774 44.601 28.4563C44.5196 27.5731 44.3621 26.7215 44.1257 25.9013C43.8893 25.0786 43.5821 24.2874 43.2013 23.5277C42.8231 22.768 42.3819 22.0399 41.8777 21.3407C41.3761 20.6441 40.8062 19.9975 40.1707 19.4008M31.6148 23.5906C32.8044 22.6049 34.0414 21.6901 35.3229 20.849C36.6071 20.0052 37.9255 19.256 39.278 18.5989C38.1093 17.6132 36.8225 16.843 35.4149 16.2884C34.0099 15.7337 32.5497 15.4052 31.0318 15.3026C30.7429 15.9414 30.5275 16.5775 30.3831 17.2136C30.2413 17.8497 30.1678 18.4675 30.1678 19.0615C30.1678 19.8843 30.2859 20.6676 30.5223 21.4194C30.7587 22.1685 31.1237 22.8914 31.6148 23.5906M31.4625 25.1596C31.0712 25.5513 30.6721 25.9245 30.2624 26.2847C29.8501 26.6448 29.4509 27.0706 29.0622 27.5622C30.0654 28.5689 31.066 29.5862 32.0613 30.614C33.0566 31.6391 34.0414 32.6774 35.0157 33.7236C35.99 34.7724 36.9539 35.8186 37.9098 36.8674C38.8631 37.9136 39.8006 38.9703 40.725 40.0401C41.4026 39.3199 41.9908 38.5655 42.4951 37.7742C42.9967 36.983 43.4064 36.1524 43.7267 35.2797C44.0445 34.407 44.2835 33.4975 44.4489 32.5539C44.6118 31.6102 44.6958 30.614 44.6958 29.5652C44.4069 29.5652 44.1364 29.5757 43.8791 29.5967C43.6217 29.6177 43.3722 29.6282 43.1254 29.6282C41.7702 29.6282 40.4992 29.51 39.3095 29.2734C38.1199 29.0368 37.0326 28.7187 36.0478 28.3192C35.063 27.917 34.1806 27.4465 33.4006 26.9024C32.6207 26.3556 31.9746 25.7773 31.4625 25.1596M28.2614 28.3648C27.8097 28.8774 27.3632 29.3926 26.922 29.9052C26.4809 30.4177 26.0764 30.9435 25.7061 31.4771C26.3837 32.1342 26.9798 32.8834 27.4919 33.7245C28.004 34.5683 28.4347 35.4752 28.784 36.4504C29.1333 37.4256 29.3933 38.4586 29.5692 39.5468C29.7426 40.6351 29.8292 41.7549 29.8292 42.9036C29.8292 43.1927 29.8266 43.4845 29.8161 43.7815C29.8056 44.0812 29.7898 44.3835 29.7688 44.691H30.0472C30.969 44.691 31.8724 44.6095 32.7548 44.4439C33.6372 44.2809 34.4985 44.0339 35.3389 43.7053C36.1793 43.3767 36.9803 42.9719 37.7392 42.4882C38.4982 42.0072 39.2283 41.4578 39.9242 40.8401L37.0932 37.6989C36.1504 36.6501 35.1919 35.604 34.2149 34.5578C33.2406 33.509 32.2558 32.468 31.2605 31.4298C30.2678 30.3941 29.2672 29.3716 28.2614 28.3648M25.0281 32.432C24.0853 33.7674 23.2292 35.1579 22.4597 36.6062C21.6902 38.0546 21.0179 39.5687 20.4428 41.1485C21.593 42.1158 22.8641 42.8991 24.2586 43.5063C25.6557 44.1109 27.1211 44.4763 28.6601 44.5998C28.6811 44.3133 28.6968 44.0294 28.7073 43.7534C28.7178 43.4748 28.7231 43.204 28.7231 42.9359C28.7231 41.8687 28.6443 40.8304 28.492 39.8263C28.3371 38.8195 28.1007 37.868 27.7829 36.9769C27.4652 36.0832 27.0765 35.2499 26.6143 34.4797C26.1521 33.7095 25.6242 33.0287 25.0281 32.432M29.8005 15.3026C28.8971 15.3026 28.0147 15.3868 27.1534 15.5497C26.292 15.7153 25.4542 15.9545 24.6454 16.2752C23.8339 16.5933 23.0539 16.9823 22.3054 17.4449C21.557 17.9076 20.8558 18.4359 20.1993 19.03C20.8742 19.6477 21.5517 20.2681 22.2293 20.8937C22.9068 21.5219 23.5791 22.158 24.2462 22.8046C24.9106 23.4513 25.5829 24.0979 26.2605 24.7445C26.938 25.3912 27.6051 26.0431 28.2616 26.7002C28.6503 26.2691 29.0573 25.8591 29.4775 25.47C29.8977 25.0784 30.3126 24.6999 30.7223 24.3292C30.1682 23.5485 29.7533 22.7179 29.4775 21.8347C29.1991 20.9515 29.0626 20.0367 29.0626 19.0931C29.0626 18.4754 29.123 17.8497 29.2464 17.2136C29.3698 16.5775 29.5537 15.9414 29.8005 15.3026M19.5498 40.2856C20.125 38.7453 20.8025 37.2522 21.5825 35.8039C22.3625 34.3555 23.2238 32.9755 24.1666 31.6612C23.4287 31.0645 22.6487 30.6203 21.8294 30.3206C21.0074 30.0236 20.167 29.8738 19.3056 29.8738C18.6674 29.8738 18.0162 29.9631 17.3517 30.1366C16.6847 30.3101 16.0124 30.5625 15.3348 30.891C15.3952 31.7742 15.5292 32.6417 15.734 33.4933C15.9389 34.3476 16.2225 35.1678 16.5823 35.959C16.9394 36.7502 17.3649 37.5098 17.8586 38.238C18.3497 38.9661 18.9143 39.6495 19.5498 40.2856M19.3056 28.7952C20.2904 28.7952 21.249 28.9555 22.1813 29.2736C23.1162 29.5916 23.9933 30.07 24.8127 30.7062C25.2434 30.1725 25.6714 29.6416 26.0916 29.1185C26.5118 28.5954 26.9688 28.0776 27.4599 27.5624C26.8033 26.9052 26.1415 26.2481 25.4745 25.5909C24.8074 24.9338 24.1378 24.2819 23.4602 23.6352C22.7827 22.9886 22.1051 22.3472 21.4275 21.7111L19.3975 19.8001C18.762 20.4783 18.1974 21.1933 17.7036 21.9424C17.2125 22.6916 16.7976 23.488 16.4588 24.3292C16.1201 25.1703 15.8522 26.0378 15.6579 26.9315C15.4635 27.8252 15.3558 28.7347 15.3348 29.6573C15.9914 29.3708 16.6532 29.1553 17.3202 29.0107C17.9873 28.8688 18.6491 28.7952 19.3056 28.7952M18.8124 18.7862C19.5923 18.0055 20.4222 17.3273 21.3046 16.7517C22.187 16.176 23.1061 15.7002 24.0594 15.3191C25.0154 14.9406 25.9949 14.6514 26.9981 14.4569C28.004 14.2624 29.0203 14.1651 30.0471 14.1651C31.0503 14.1651 32.0509 14.2624 33.0462 14.4569C34.0415 14.6514 35.0158 14.9406 35.9691 15.3191C36.9251 15.7002 37.8363 16.176 38.7082 16.7517C39.5801 17.3273 40.4074 18.0055 41.1873 18.7862C41.9463 19.5642 42.6186 20.3923 43.2016 21.2649C43.7872 22.1376 44.2731 23.0524 44.6644 24.0066C45.053 24.9607 45.3472 25.9412 45.5415 26.948C45.7359 27.9547 45.833 28.9615 45.833 29.9682C45.833 30.9934 45.7359 32.0106 45.5415 33.0174C45.3472 34.0215 45.053 34.9993 44.6644 35.943C44.2731 36.8867 43.7872 37.8014 43.2016 38.6846C42.6186 39.5678 41.9463 40.3985 41.1873 41.1792C40.4074 41.9388 39.5801 42.6118 38.7082 43.1979C37.8363 43.7815 36.9251 44.2704 35.9691 44.6594C35.0158 45.0511 34.0415 45.3429 33.0462 45.5374C32.0509 45.7345 31.0503 45.8318 30.0471 45.8318C29.0203 45.8318 28.004 45.7345 26.9981 45.5374C25.9949 45.3429 25.0154 45.0511 24.0594 44.6594C23.1061 44.2704 22.187 43.7815 21.3046 43.1979C20.4222 42.6118 19.5923 41.9388 18.8124 41.1792C18.0534 40.3985 17.3811 39.5678 16.7981 38.6846C16.2125 37.8014 15.724 36.8867 15.3353 35.943C14.9466 34.9993 14.6525 34.0215 14.4582 33.0174C14.2638 32.0106 14.1667 30.9934 14.1667 29.9682C14.1667 28.9615 14.2638 27.9547 14.4582 26.948C14.6525 25.9412 14.9466 24.9607 15.3353 24.0066C15.724 23.0524 16.2125 22.1376 16.7981 21.2649C17.3811 20.3923 18.0534 19.5642 18.8124 18.7862Z" fill="white" fill-rule="evenodd"></path></svg>